<?xml version="1.0" encoding="UTF-8" standalone="no"?>
<!-- Generated by IcoMoon.io -->

<svg
   xmlns:dc="http://purl.org/dc/elements/1.1/"
   xmlns:cc="http://creativecommons.org/ns#"
   xmlns:rdf="http://www.w3.org/1999/02/22-rdf-syntax-ns#"
   xmlns:svg="http://www.w3.org/2000/svg"
   xmlns="http://www.w3.org/2000/svg"
   xmlns:sodipodi="http://sodipodi.sourceforge.net/DTD/sodipodi-0.dtd"
   xmlns:inkscape="http://www.inkscape.org/namespaces/inkscape"
   version="1.1"
   width="24"
   height="24"
   viewBox="0 0 24 24"
   id="svg6"
   sodipodi:docname="uniE019.svg"
   inkscape:version="0.92.3 (2405546, 2018-03-11)">
  <metadata
     id="metadata12">
    <rdf:RDF>
      <cc:Work
         rdf:about="">
        <dc:format>image/svg+xml</dc:format>
        <dc:type
           rdf:resource="http://purl.org/dc/dcmitype/StillImage" />
        <dc:title>uniE019</dc:title>
      </cc:Work>
    </rdf:RDF>
  </metadata>
  <defs
     id="defs10" />
  <sodipodi:namedview
     pagecolor="#ffffff"
     bordercolor="#666666"
     borderopacity="1"
     objecttolerance="10"
     gridtolerance="10"
     guidetolerance="10"
     inkscape:pageopacity="0"
     inkscape:pageshadow="2"
     inkscape:window-width="1280"
     inkscape:window-height="995"
     id="namedview8"
     showgrid="false"
     inkscape:zoom="7.375"
     inkscape:cx="16"
     inkscape:cy="16"
     inkscape:window-x="1600"
     inkscape:window-y="0"
     inkscape:window-maximized="1"
     inkscape:current-layer="svg6" />
  <title
     id="title2">uniE019</title>
  <path
     d="m 12,1.2956 q 0.616,0 1.3811,0.0931 l 0.7091,2.8371 0.0931,0.0189 q 0.9149,0.2611 1.7549,0.728 l 0.0931,0.0371 2.5011,-1.4931 q 1.1389,0.896 1.9411,1.96 l -1.4931,2.5011 0.056,0.0931 q 0.4669,0.8211 0.728,1.736 l 0.0189,0.112 2.8371,0.7091 q 0.0931,0.8029 0.0931,1.3629 0,0.6349 -0.0931,1.3811 l -2.8371,0.7091 -0.0189,0.112 q -0.28,0.9149 -0.728,1.736 l -0.056,0.0931 1.4931,2.5011 q -0.896,1.1389 -1.9411,1.96 l -2.5011,-1.512 -0.0931,0.056 q -0.8211,0.4669 -1.7549,0.728 l -0.0931,0.0371 -0.7091,2.8189 Q 12.5782,22.7044 12,22.7044 q -0.616,0 -1.3811,-0.0931 L 9.9098,19.7924 9.8167,19.7553 Q 8.9018,19.4942 8.0618,19.0273 l -0.0931,-0.056 -2.5011,1.512 q -1.12,-0.896 -1.9411,-1.96 l 1.4931,-2.5011 -0.056,-0.0931 q -0.4669,-0.84 -0.7091,-1.736 L 4.2174,14.0811 1.3985,13.372 q -0.112,-0.784 -0.112,-1.3811 0,-0.616 0.112,-1.3629 L 4.2174,9.9189 4.2545,9.8069 Q 4.4974,8.9109 4.9636,8.0709 L 5.0196,7.9778 3.5265,5.4767 q 0.8771,-1.1389 1.96,-1.96 L 7.9694,5.0098 8.0625,4.9727 q 0.84,-0.4669 1.7549,-0.728 L 9.9105,4.2258 10.6196,1.3887 q 0.8029,-0.0931 1.3811,-0.0931 z m 0,6.7018 q -1.6611,0 -2.8371,1.176 -1.176,1.176 -1.176,2.828 0,1.652 1.176,2.828 1.176,1.176 2.8371,1.176 1.6611,0 2.8371,-1.176 1.176,-1.176 1.176,-2.828 0,-1.652 -1.176,-2.828 Q 13.6611,7.9974 12,7.9974 Z"
     id="path4"
     inkscape:connector-curvature="0"
     style="stroke-width:0.69999999" />
</svg>
