<?xml version="1.0" encoding="UTF-8" standalone="no"?>
<!-- Generated by IcoMoon.io -->

<svg
   xmlns:dc="http://purl.org/dc/elements/1.1/"
   xmlns:cc="http://creativecommons.org/ns#"
   xmlns:rdf="http://www.w3.org/1999/02/22-rdf-syntax-ns#"
   xmlns:svg="http://www.w3.org/2000/svg"
   xmlns="http://www.w3.org/2000/svg"
   xmlns:sodipodi="http://sodipodi.sourceforge.net/DTD/sodipodi-0.dtd"
   xmlns:inkscape="http://www.inkscape.org/namespaces/inkscape"
   version="1.1"
   width="24"
   height="24"
   viewBox="0 0 24 24"
   id="svg6"
   sodipodi:docname="uniE170.svg"
   inkscape:version="0.92.3 (2405546, 2018-03-11)">
  <metadata
     id="metadata12">
    <rdf:RDF>
      <cc:Work
         rdf:about="">
        <dc:format>image/svg+xml</dc:format>
        <dc:type
           rdf:resource="http://purl.org/dc/dcmitype/StillImage" />
        <dc:title>uniE170</dc:title>
      </cc:Work>
    </rdf:RDF>
  </metadata>
  <defs
     id="defs10" />
  <sodipodi:namedview
     pagecolor="#ffffff"
     bordercolor="#666666"
     borderopacity="1"
     objecttolerance="10"
     gridtolerance="10"
     guidetolerance="10"
     inkscape:pageopacity="0"
     inkscape:pageshadow="2"
     inkscape:window-width="1280"
     inkscape:window-height="995"
     id="namedview8"
     showgrid="false"
     inkscape:zoom="7.375"
     inkscape:cx="16"
     inkscape:cy="16"
     inkscape:window-x="1600"
     inkscape:window-y="0"
     inkscape:window-maximized="1"
     inkscape:current-layer="svg6" />
  <title
     id="title2">uniE170</title>
  <path
     d="m 8.26585,0.79965 11.1811,0.0371 q 0.3731,0.0189 0.6531,0.2891 0.28,0.2702 0.28,0.6629 l 0.0189,11.144 q 0,0.392 -0.196,0.4669 -0.196,0.0749 -0.4571,-0.1869 l -3.8829,-3.8829 -2.8931,2.8749 -3.9571,-3.9571 2.8931,-2.8749 -3.92,-3.92 q -0.2611,-0.2611 -0.1869,-0.4571 0.0742,-0.196 0.4669,-0.196 z m 3.248,12.8429 -1.4189,1.4371 q -0.28,0.2611 -0.672,0.2611 -0.392,0 -0.6531,-0.2611 l -2.6509,-2.6509 q -0.2611,-0.2611 -0.2611,-0.6531 0,-0.392 0.2611,-0.6531 l 1.4371,-1.4371 z m -8.848,3.9571 h 18.6669 q 0.392,0 0.6629,0.2709 0.2709,0.2709 0.2709,0.6629 v 4.6669 H 1.73345 v -4.6669 q 0,-0.392 0.2709,-0.6629 0.2709,-0.2709 0.6629,-0.2709 z m 15.8669,1.8669 v 0.9331 h 1.8669 v -0.9331 z"
     id="path4"
     inkscape:connector-curvature="0"
     style="stroke-width:0.69999999" />
</svg>
