<?xml version="1.0" encoding="UTF-8" standalone="no"?>
<svg
   xmlns:dc="http://purl.org/dc/elements/1.1/"
   xmlns:cc="http://creativecommons.org/ns#"
   xmlns:rdf="http://www.w3.org/1999/02/22-rdf-syntax-ns#"
   xmlns:svg="http://www.w3.org/2000/svg"
   xmlns="http://www.w3.org/2000/svg"
   xmlns:sodipodi="http://sodipodi.sourceforge.net/DTD/sodipodi-0.dtd"
   xmlns:inkscape="http://www.inkscape.org/namespaces/inkscape"
   width="24"
   height="24"
   viewBox="0 0 24 24"
   version="1.1"
   id="svg11"
   inkscape:version="0.92.3 (2405546, 2018-03-11)"
   sodipodi:docname="identify_region.svg">
  <metadata
     id="metadata17">
    <rdf:RDF>
      <cc:Work
         rdf:about="">
        <dc:format>image/svg+xml</dc:format>
        <dc:type
           rdf:resource="http://purl.org/dc/dcmitype/StillImage" />
        <dc:title></dc:title>
      </cc:Work>
    </rdf:RDF>
  </metadata>
  <defs
     id="defs15" />
  <sodipodi:namedview
     pagecolor="#878787"
     bordercolor="#666666"
     borderopacity="1"
     objecttolerance="10"
     gridtolerance="10"
     guidetolerance="10"
     inkscape:pageopacity="0"
     inkscape:pageshadow="2"
     inkscape:window-width="1280"
     inkscape:window-height="995"
     id="namedview13"
     showgrid="true"
     units="px"
     inkscape:zoom="27.812866"
     inkscape:cx="13.599073"
     inkscape:cy="9.4978284"
     inkscape:window-x="1600"
     inkscape:window-y="0"
     inkscape:window-maximized="1"
     inkscape:current-layer="svg11"
     inkscape:snap-bbox="true"
     inkscape:bbox-paths="true"
     inkscape:bbox-nodes="true"
     inkscape:snap-bbox-midpoints="true"
     inkscape:snap-bbox-edge-midpoints="true">
    <inkscape:grid
       type="xygrid"
       id="grid4473" />
  </sodipodi:namedview>
  <path
     style="color:#000000;font-style:normal;font-variant:normal;font-weight:normal;font-stretch:normal;font-size:medium;line-height:normal;font-family:sans-serif;font-variant-ligatures:normal;font-variant-position:normal;font-variant-caps:normal;font-variant-numeric:normal;font-variant-alternates:normal;font-feature-settings:normal;text-indent:0;text-align:start;text-decoration:none;text-decoration-line:none;text-decoration-style:solid;text-decoration-color:#000000;letter-spacing:normal;word-spacing:normal;text-transform:none;writing-mode:lr-tb;direction:ltr;text-orientation:mixed;dominant-baseline:auto;baseline-shift:baseline;text-anchor:start;white-space:normal;shape-padding:0;clip-rule:nonzero;display:inline;overflow:visible;visibility:visible;opacity:1;isolation:auto;mix-blend-mode:normal;color-interpolation:sRGB;color-interpolation-filters:linearRGB;solid-color:#000000;solid-opacity:1;vector-effect:none;fill:#000000;fill-opacity:1;fill-rule:evenodd;stroke:none;stroke-width:2;stroke-linecap:butt;stroke-linejoin:miter;stroke-miterlimit:4;stroke-dasharray:none;stroke-dashoffset:0;stroke-opacity:1;color-rendering:auto;image-rendering:auto;shape-rendering:auto;text-rendering:auto;enable-background:accumulate"
     d="M 7.0625,1 1.46875,7.7109375 2.7109375,15.166667 15.018229,12.927083 20.791666,7.15625 17.096354,1 H 16.53125 Z M 8,3 h 7.966146 L 18.270834,6.84375 14.044271,11.072917 4.3515625,12.833333 3.59375,8.2890625 Z"
     id="path5064"
     inkscape:connector-curvature="0" />
  <path
     d="m 17.53125,13 q 1.013909,0 1.941051,0.394189 0.927141,0.39419 1.598856,1.065904 0.671714,0.671715 1.065904,1.598856 Q 22.53125,16.986091 22.53125,18 q 0,1.013909 -0.394189,1.941051 -0.39419,0.927141 -1.065904,1.598856 -0.671715,0.671714 -1.598856,1.065904 Q 18.545159,23 17.53125,23 16.517341,23 15.590199,22.605811 14.663058,22.211621 13.991343,21.539907 13.319629,20.868192 12.925439,19.941051 12.53125,19.013909 12.53125,18 q 0,-1.013909 0.394189,-1.941051 0.39419,-0.927141 1.065904,-1.598856 0.671715,-0.671714 1.598856,-1.065904 Q 16.517341,13 17.53125,13 Z m 0.649941,1.533861 h -1.299882 q -0.08677,0 -0.151762,0.065 -0.065,0.065 -0.065,0.151762 v 1.299882 q 0,0.08677 0.065,0.151762 0.065,0.065 0.151762,0.065 h 1.299882 q 0.08677,0 0.151762,-0.065 0.065,-0.065 0.065,-0.151762 v -1.299882 q 0,-0.08677 -0.065,-0.151762 -0.065,-0.065 -0.151762,-0.065 z m 0,2.599767 h -2.16658 q -0.08676,0 -0.151761,0.065 -0.065,0.065 -0.065,0.151761 v 0.433186 q 0,0.08677 0.065,0.151761 0.065,0.065 0.151761,0.065 h 0.649942 v 1.733068 h -0.649942 q -0.08676,0 -0.151761,0.065 -0.065,0.065 -0.065,0.151761 v 0.433187 q 0,0.08677 0.065,0.151761 0.065,0.065 0.151761,0.065 h 3.032952 q 0.08677,0 0.151762,-0.065 0.065,-0.065 0.065,-0.151761 v -0.433187 q 0,-0.08677 -0.065,-0.151761 -0.065,-0.065 -0.151762,-0.065 h -0.649941 v -2.383009 q 0,-0.08677 -0.065,-0.151762 -0.065,-0.065 -0.151761,-0.065 z"
     id="path4"
     inkscape:connector-curvature="0"
     style="stroke-width:0.32497075" />
</svg>
