<?xml version="1.0" encoding="UTF-8" standalone="no"?>
<!-- Generated by IcoMoon.io -->

<svg
   xmlns:dc="http://purl.org/dc/elements/1.1/"
   xmlns:cc="http://creativecommons.org/ns#"
   xmlns:rdf="http://www.w3.org/1999/02/22-rdf-syntax-ns#"
   xmlns:svg="http://www.w3.org/2000/svg"
   xmlns="http://www.w3.org/2000/svg"
   xmlns:sodipodi="http://sodipodi.sourceforge.net/DTD/sodipodi-0.dtd"
   xmlns:inkscape="http://www.inkscape.org/namespaces/inkscape"
   version="1.1"
   width="24"
   height="24"
   viewBox="0 0 24 24"
   id="svg6"
   sodipodi:docname="uniE236.svg"
   inkscape:version="0.92.3 (2405546, 2018-03-11)">
  <metadata
     id="metadata12">
    <rdf:RDF>
      <cc:Work
         rdf:about="">
        <dc:format>image/svg+xml</dc:format>
        <dc:type
           rdf:resource="http://purl.org/dc/dcmitype/StillImage" />
        <dc:title>uniE236</dc:title>
      </cc:Work>
    </rdf:RDF>
  </metadata>
  <defs
     id="defs10" />
  <sodipodi:namedview
     pagecolor="#ffffff"
     bordercolor="#666666"
     borderopacity="1"
     objecttolerance="10"
     gridtolerance="10"
     guidetolerance="10"
     inkscape:pageopacity="0"
     inkscape:pageshadow="2"
     inkscape:window-width="1280"
     inkscape:window-height="995"
     id="namedview8"
     showgrid="false"
     inkscape:zoom="7.375"
     inkscape:cx="16"
     inkscape:cy="16"
     inkscape:window-x="1600"
     inkscape:window-y="0"
     inkscape:window-maximized="1"
     inkscape:current-layer="svg6" />
  <title
     id="title2">uniE236</title>
  <path
     d="m 3.13345,2.66655 h 17.7331 q 0.1869,0 0.3269,0.14 0.14,0.14 0.14,0.3269 v 2.8 q 0,0.1869 -0.14,0.3269 -0.14,0.14 -0.3269,0.14 H 3.13345 q -0.1869,0 -0.3269,-0.14 -0.14,-0.14 -0.14,-0.3269 v -2.8 q 0,-0.1869 0.14,-0.3269 0.14,-0.14 0.3269,-0.14 z m 0,7.4662 h 17.7331 q 0.1869,0 0.3269,0.14 0.14,0.14 0.14,0.3269 v 2.8 q 0,0.1869 -0.14,0.3269 -0.14,0.14 -0.3269,0.14 H 3.13345 q -0.1869,0 -0.3269,-0.14 -0.14,-0.14 -0.14,-0.3269 v -2.8 q 0,-0.1869 0.14,-0.3269 0.14,-0.14 0.3269,-0.14 z m 0,7.4669 h 17.7331 q 0.1869,0 0.3269,0.14 0.14,0.14 0.14,0.3269 v 2.8 q 0,0.1869 -0.14,0.3269 -0.14,0.14 -0.3269,0.14 H 3.13345 q -0.1869,0 -0.3269,-0.14 -0.14,-0.14 -0.14,-0.3269 v -2.8 q 0,-0.1869 0.14,-0.3269 0.14,-0.14 0.3269,-0.14 z"
     id="path4"
     inkscape:connector-curvature="0"
     style="stroke-width:0.69999999" />
</svg>
