<?xml version="1.0" encoding="UTF-8" standalone="no"?>
<!-- Generated by IcoMoon.io -->

<svg
   xmlns:dc="http://purl.org/dc/elements/1.1/"
   xmlns:cc="http://creativecommons.org/ns#"
   xmlns:rdf="http://www.w3.org/1999/02/22-rdf-syntax-ns#"
   xmlns:svg="http://www.w3.org/2000/svg"
   xmlns="http://www.w3.org/2000/svg"
   xmlns:sodipodi="http://sodipodi.sourceforge.net/DTD/sodipodi-0.dtd"
   xmlns:inkscape="http://www.inkscape.org/namespaces/inkscape"
   version="1.1"
   width="24"
   height="24"
   viewBox="0 0 24 24"
   id="svg6"
   sodipodi:docname="uniE045.svg"
   inkscape:version="0.92.3 (2405546, 2018-03-11)">
  <metadata
     id="metadata12">
    <rdf:RDF>
      <cc:Work
         rdf:about="">
        <dc:format>image/svg+xml</dc:format>
        <dc:type
           rdf:resource="http://purl.org/dc/dcmitype/StillImage" />
        <dc:title>uniE045</dc:title>
      </cc:Work>
    </rdf:RDF>
  </metadata>
  <defs
     id="defs10" />
  <sodipodi:namedview
     pagecolor="#ffffff"
     bordercolor="#666666"
     borderopacity="1"
     objecttolerance="10"
     gridtolerance="10"
     guidetolerance="10"
     inkscape:pageopacity="0"
     inkscape:pageshadow="2"
     inkscape:window-width="1280"
     inkscape:window-height="995"
     id="namedview8"
     showgrid="false"
     inkscape:zoom="7.375"
     inkscape:cx="16"
     inkscape:cy="16"
     inkscape:window-x="1600"
     inkscape:window-y="0"
     inkscape:window-maximized="1"
     inkscape:current-layer="svg6" />
  <title
     id="title2">uniE045</title>
  <path
     d="M 16.144,0.8 H 7.856 Q 7.6509,0.8 7.5011,0.94 7.3513,1.08 7.3331,1.2669 l -1.456,5.6189 q -0.1309,0.448 0.1309,0.84 l 1.064,2.016 q 0.112,0.168 0.3269,0.28 0.2149,0.112 0.4011,0.112 h 8.4 q 0.1869,0 0.4011,-0.112 0.2142,-0.112 0.3269,-0.28 l 1.1571,-2.016 q 0.2611,-0.392 0.1309,-0.84 L 16.6669,1.2669 Q 16.648,1.08 16.4989,0.94 16.3498,0.8 16.144,0.8 Z m 6.5891,7.4669 h -2.8 q -0.1869,0 -0.392,0.1211 -0.2051,0.1211 -0.28,0.2891 l -1.456,2.912 q -0.0749,0.168 -0.28,0.2891 -0.2051,0.1211 -0.392,0.1211 H 6.8662 q -0.1869,0 -0.392,-0.1211 -0.2051,-0.1211 -0.28,-0.2891 L 4.7382,8.6771 Q 4.6633,8.5091 4.4582,8.388 4.2531,8.2669 4.0662,8.2669 h -2.8 q -0.1869,0 -0.3269,0.14 -0.14,0.14 -0.14,0.3269 v 12.1331 q 0,0.1869 0.14,0.3269 0.14,0.14 0.3269,0.14 h 2.8 q 0.1869,0 0.3269,-0.14 0.14,-0.14 0.14,-0.3269 v -2.8 q 0,-0.1869 0.14,-0.3269 Q 4.8131,17.6 5,17.6 h 14 q 0.1869,0 0.3269,0.14 0.14,0.14 0.14,0.3269 v 2.8 q 0,0.1869 0.14,0.3269 0.14,0.14 0.3269,0.14 h 2.8 q 0.1869,0 0.3269,-0.14 0.14,-0.14 0.14,-0.3269 V 8.7338 q 0,-0.1869 -0.14,-0.3269 -0.14,-0.14 -0.3269,-0.14 z m -6.0662,11.2 H 7.3338 q -0.1869,0 -0.364,0.1309 -0.1771,0.1309 -0.2149,0.3171 L 6.0458,22.752 Q 6.0087,22.9389 6.1109,23.0691 6.2131,23.1993 6.4,23.2 h 11.2 q 0.1869,0 0.2891,-0.1309 0.1022,-0.1309 0.0651,-0.3171 L 17.2451,19.9149 Q 17.208,19.728 17.0302,19.5978 16.8524,19.4676 16.6662,19.4669 Z"
     id="path4"
     inkscape:connector-curvature="0"
     style="stroke-width:0.69999999" />
</svg>
