<?xml version="1.0" encoding="UTF-8" standalone="no"?>
<!-- Generated by IcoMoon.io -->

<svg
   xmlns:dc="http://purl.org/dc/elements/1.1/"
   xmlns:cc="http://creativecommons.org/ns#"
   xmlns:rdf="http://www.w3.org/1999/02/22-rdf-syntax-ns#"
   xmlns:svg="http://www.w3.org/2000/svg"
   xmlns="http://www.w3.org/2000/svg"
   xmlns:sodipodi="http://sodipodi.sourceforge.net/DTD/sodipodi-0.dtd"
   xmlns:inkscape="http://www.inkscape.org/namespaces/inkscape"
   version="1.1"
   width="24"
   height="24"
   viewBox="0 0 24 24"
   id="svg6"
   sodipodi:docname="uniE087.svg"
   inkscape:version="0.92.3 (2405546, 2018-03-11)">
  <metadata
     id="metadata12">
    <rdf:RDF>
      <cc:Work
         rdf:about="">
        <dc:format>image/svg+xml</dc:format>
        <dc:type
           rdf:resource="http://purl.org/dc/dcmitype/StillImage" />
        <dc:title>uniE087</dc:title>
      </cc:Work>
    </rdf:RDF>
  </metadata>
  <defs
     id="defs10" />
  <sodipodi:namedview
     pagecolor="#ffffff"
     bordercolor="#666666"
     borderopacity="1"
     objecttolerance="10"
     gridtolerance="10"
     guidetolerance="10"
     inkscape:pageopacity="0"
     inkscape:pageshadow="2"
     inkscape:window-width="1280"
     inkscape:window-height="995"
     id="namedview8"
     showgrid="false"
     inkscape:zoom="7.375"
     inkscape:cx="16"
     inkscape:cy="16"
     inkscape:window-x="1600"
     inkscape:window-y="0"
     inkscape:window-maximized="1"
     inkscape:current-layer="svg6" />
  <title
     id="title2">uniE087</title>
  <path
     d="m 10.6,0.8 h 2.8 q 0.1869,0 0.3269,0.14 0.14,0.14 0.14,0.3269 V 4.888 q 1.9229,0.504 3.332,1.9131 1.4091,1.4091 1.9131,3.332 h 3.6211 q 0.1869,0 0.3269,0.14 0.14,0.14 0.14,0.3269 v 2.8 q 0,0.1869 -0.14,0.3269 -0.14,0.14 -0.3269,0.14 H 19.112 q -0.504,1.9229 -1.9131,3.332 -1.4091,1.4091 -3.332,1.9131 v 3.6211 q 0,0.1869 -0.14,0.3269 -0.14,0.14 -0.3269,0.14 h -2.8 q -0.1869,0 -0.3269,-0.14 -0.14,-0.14 -0.14,-0.3269 V 19.112 Q 8.2102,18.608 6.8011,17.1989 5.392,15.7898 4.888,13.8669 H 1.2669 Q 1.08,13.8669 0.94,13.7269 0.8,13.5869 0.8,13.4 v -2.8 q 0,-0.1869 0.14,-0.3269 0.14,-0.14 0.3269,-0.14 H 4.888 Q 5.392,8.2102 6.8011,6.8011 8.2102,5.392 10.1331,4.888 V 1.2669 q 0,-0.1869 0.14,-0.3269 Q 10.4131,0.8 10.6,0.8 Z m 3.2669,5.7309 v 3.136 q 0,0.1869 -0.14,0.3269 -0.14,0.14 -0.3269,0.14 h -2.8 q -0.1869,0 -0.3269,-0.14 -0.14,-0.14 -0.14,-0.3269 V 6.5309 Q 8.864,6.96 7.912,7.912 6.96,8.864 6.5309,10.1331 h 3.136 q 0.1869,0 0.3269,0.14 0.14,0.14 0.14,0.3269 v 2.8 q 0,0.1869 -0.14,0.3269 -0.14,0.14 -0.3269,0.14 H 6.5309 Q 6.96,15.136 7.912,16.088 q 0.952,0.952 2.2211,1.3811 v -3.136 q 0,-0.1869 0.14,-0.3269 0.14,-0.14 0.3269,-0.14 h 2.8 q 0.1869,0 0.3269,0.14 0.14,0.14 0.14,0.3269 v 3.136 Q 15.136,17.04 16.088,16.088 17.04,15.136 17.4691,13.8669 h -3.136 q -0.1869,0 -0.3269,-0.14 -0.14,-0.14 -0.14,-0.3269 v -2.8 q 0,-0.1869 0.14,-0.3269 0.14,-0.14 0.3269,-0.14 h 3.136 Q 17.04,8.864 16.088,7.912 15.136,6.96 13.8669,6.5309 Z"
     id="path4"
     inkscape:connector-curvature="0"
     style="stroke-width:0.69999999" />
</svg>
