<?xml version="1.0" encoding="UTF-8" standalone="no"?>
<!-- Generated by IcoMoon.io -->

<svg
   xmlns:dc="http://purl.org/dc/elements/1.1/"
   xmlns:cc="http://creativecommons.org/ns#"
   xmlns:rdf="http://www.w3.org/1999/02/22-rdf-syntax-ns#"
   xmlns:svg="http://www.w3.org/2000/svg"
   xmlns="http://www.w3.org/2000/svg"
   xmlns:sodipodi="http://sodipodi.sourceforge.net/DTD/sodipodi-0.dtd"
   xmlns:inkscape="http://www.inkscape.org/namespaces/inkscape"
   version="1.1"
   width="24"
   height="24"
   viewBox="0 0 24 24"
   id="svg6"
   sodipodi:docname="search.svg"
   inkscape:version="0.92.3 (2405546, 2018-03-11)">
  <metadata
     id="metadata12">
    <rdf:RDF>
      <cc:Work
         rdf:about="">
        <dc:format>image/svg+xml</dc:format>
        <dc:type
           rdf:resource="http://purl.org/dc/dcmitype/StillImage" />
        <dc:title>uniE003</dc:title>
      </cc:Work>
    </rdf:RDF>
  </metadata>
  <defs
     id="defs10" />
  <sodipodi:namedview
     pagecolor="#ffffff"
     bordercolor="#666666"
     borderopacity="1"
     objecttolerance="10"
     gridtolerance="10"
     guidetolerance="10"
     inkscape:pageopacity="0"
     inkscape:pageshadow="2"
     inkscape:window-width="1280"
     inkscape:window-height="995"
     id="namedview8"
     showgrid="false"
     inkscape:zoom="7.375"
     inkscape:cx="16"
     inkscape:cy="16"
     inkscape:window-x="1600"
     inkscape:window-y="0"
     inkscape:window-maximized="1"
     inkscape:current-layer="svg6" />
  <title
     id="title2">uniE003</title>
  <path
     d="m 9.9510055,0.80945 q 1.8669005,0 3.5651005,0.728 1.6982,0.728 2.9211,1.9509 1.2229,1.2229 1.9509,2.9211 0.728,1.6982 0.728,3.5651 l -0.0189,0.0371 0.0189,0.0931 q 0,2.632 -1.456,4.8909 l 5.1331,5.1149 q 0.4291,0.4851 0.42,0.8309 -0.0091,0.3458 -0.42,0.7931 l -1.1011,1.0829 q -0.4851,0.3731 -0.868,0.3731 -0.3829,0 -0.7371,-0.3731 l -5.1331,-5.1149 q -2.2211,1.4371 -4.872,1.4371 l -0.093101,-0.0189 -0.0371,0.0189 q -1.8669,0 -3.5651,-0.728 -1.6982,-0.728 -2.9211,-1.9509 -1.2229,-1.2229 -1.9509,-2.9211 -0.72799949,-1.6982 -0.72799949,-3.5651 0,-1.8669 0.72799999,-3.5651 0.728,-1.6982 1.9509,-2.9211 1.2229,-1.2229 2.9211,-1.9509 1.6982,-0.728 3.5651,-0.728 z m 0,3.1549 q -1.6429,0 -3.024,0.8029 -1.3811,0.8029 -2.184,2.184 -0.8029,1.3811 -0.8029,3.024 0,1.6429 0.8029,3.024 0.8029,1.3811 2.184,2.184 1.3811,0.8029 3.024,0.8029 1.6429005,0 3.0240005,-0.8029 1.3811,-0.8029 2.184,-2.184 0.8029,-1.3811 0.8029,-3.024 0,-1.6429 -0.8029,-3.024 -0.8029,-1.3811 -2.184,-2.184 -1.3811,-0.8029 -3.0240005,-0.8029 z"
     id="path4"
     inkscape:connector-curvature="0"
     style="stroke-width:0.69999999" />
</svg>
