<?xml version="1.0" encoding="UTF-8" standalone="no"?>
<svg
   xmlns:dc="http://purl.org/dc/elements/1.1/"
   xmlns:cc="http://creativecommons.org/ns#"
   xmlns:rdf="http://www.w3.org/1999/02/22-rdf-syntax-ns#"
   xmlns:svg="http://www.w3.org/2000/svg"
   xmlns="http://www.w3.org/2000/svg"
   xmlns:sodipodi="http://sodipodi.sourceforge.net/DTD/sodipodi-0.dtd"
   xmlns:inkscape="http://www.inkscape.org/namespaces/inkscape"
   width="24"
   height="24"
   viewBox="0 0 24 24"
   version="1.1"
   id="svg11"
   inkscape:version="0.92.3 (2405546, 2018-03-11)"
   sodipodi:docname="share.svg">
  <metadata
     id="metadata17">
    <rdf:RDF>
      <cc:Work
         rdf:about="">
        <dc:format>image/svg+xml</dc:format>
        <dc:type
           rdf:resource="http://purl.org/dc/dcmitype/StillImage" />
        <dc:title />
      </cc:Work>
    </rdf:RDF>
  </metadata>
  <defs
     id="defs15" />
  <sodipodi:namedview
     pagecolor="#ffffff"
     bordercolor="#666666"
     borderopacity="1"
     objecttolerance="10"
     gridtolerance="10"
     guidetolerance="10"
     inkscape:pageopacity="0"
     inkscape:pageshadow="2"
     inkscape:window-width="1280"
     inkscape:window-height="995"
     id="namedview13"
     showgrid="true"
     units="px"
     inkscape:zoom="13.906433"
     inkscape:cx="-0.74703639"
     inkscape:cy="11.202223"
     inkscape:window-x="1600"
     inkscape:window-y="0"
     inkscape:window-maximized="1"
     inkscape:current-layer="surface1"
     viewbox-width="24">
    <inkscape:grid
       type="xygrid"
       id="grid821" />
  </sodipodi:namedview>
  <g
     id="surface1">
    <path
       style="fill:#000000;fill-opacity:1;fill-rule:evenodd;stroke:none;stroke-width:1.44846249"
       d="M 20.625 0.49804688 C 19.035087 0.49804687 17.751953 1.7811803 17.751953 3.3710938 C 17.751953 3.4206465 17.765113 3.4666955 17.767578 3.515625 L 5.2070312 9.7988281 C 4.7079437 9.380997 4.074569 9.1191406 3.375 9.1191406 C 1.7850864 9.1191406 0.5 10.410087 0.5 12 C 0.5 13.584256 1.7850864 14.875 3.375 14.875 C 4.0720565 14.875 4.7028536 14.613876 5.2011719 14.199219 L 17.765625 20.480469 C 17.763215 20.528693 17.751953 20.574235 17.751953 20.623047 C 17.751953 22.21296 19.035087 23.501953 20.625 23.501953 C 22.214915 23.501953 23.5 22.21296 23.5 20.623047 C 23.5 19.038791 22.214915 17.748047 20.625 17.748047 C 19.925902 17.748047 19.294611 18.007693 18.796875 18.421875 L 6.234375 12.142578 C 6.2367952 12.094354 6.2480469 12.048812 6.2480469 12 C 6.2480469 11.951177 6.2367792 11.905651 6.234375 11.857422 L 18.796875 5.5722656 C 19.294747 5.986178 19.925454 6.2460938 20.625 6.2460938 C 22.214915 6.2460937 23.5 4.9610088 23.5 3.3710938 C 23.5 1.7811803 22.214915 0.49804688 20.625 0.49804688 z "
       id="path2" />
  </g>
</svg>
