<?xml version="1.0" encoding="UTF-8" standalone="no"?>
<!-- Generated by IcoMoon.io -->

<svg
   xmlns:dc="http://purl.org/dc/elements/1.1/"
   xmlns:cc="http://creativecommons.org/ns#"
   xmlns:rdf="http://www.w3.org/1999/02/22-rdf-syntax-ns#"
   xmlns:svg="http://www.w3.org/2000/svg"
   xmlns="http://www.w3.org/2000/svg"
   xmlns:sodipodi="http://sodipodi.sourceforge.net/DTD/sodipodi-0.dtd"
   xmlns:inkscape="http://www.inkscape.org/namespaces/inkscape"
   version="1.1"
   width="24"
   height="24"
   viewBox="0 0 24 24"
   id="svg6"
   sodipodi:docname="uniE020.svg"
   inkscape:version="0.92.3 (2405546, 2018-03-11)">
  <metadata
     id="metadata12">
    <rdf:RDF>
      <cc:Work
         rdf:about="">
        <dc:format>image/svg+xml</dc:format>
        <dc:type
           rdf:resource="http://purl.org/dc/dcmitype/StillImage" />
        <dc:title>uniE020</dc:title>
      </cc:Work>
    </rdf:RDF>
  </metadata>
  <defs
     id="defs10" />
  <sodipodi:namedview
     pagecolor="#ffffff"
     bordercolor="#666666"
     borderopacity="1"
     objecttolerance="10"
     gridtolerance="10"
     guidetolerance="10"
     inkscape:pageopacity="0"
     inkscape:pageshadow="2"
     inkscape:window-width="1280"
     inkscape:window-height="995"
     id="namedview8"
     showgrid="false"
     inkscape:zoom="10.429825"
     inkscape:cx="1.5961997"
     inkscape:cy="10.926045"
     inkscape:window-x="1600"
     inkscape:window-y="0"
     inkscape:window-maximized="1"
     inkscape:current-layer="svg6" />
  <title
     id="title2">uniE020</title>
  <path
     d="m 9.255657,0.109219 h 5.488 q 0.749798,0 1.28968,0.539882 0.539882,0.539882 0.539882,1.28968 v 1.829562 h 5.030438 q 0.183162,0 0.320362,0.1372 0.1372,0.1372 0.1372,0.320362 v 1.372 H 1.938781 v -1.372 q 0,-0.183162 0.1372,-0.320362 0.1372,-0.1372 0.320362,-0.1372 H 7.426781 V 1.938781 q 0,-0.749798 0.539882,-1.28968 0.539882,-0.539882 1.28968,-0.539882 z m 0,1.829562 v 1.829562 h 5.488 V 1.938781 Z m 10.976,5.488 v 14.634438 q 0,0.749798 -0.539882,1.28968 -0.539882,0.539882 -1.28968,0.539882 H 5.596533 q -0.749798,0 -1.28968,-0.539882 -0.539882,-0.539882 -0.539882,-1.28968 V 7.426781 h 16.464 z M 5.597219,9.256343 V 22.061905 H 7.426781 V 9.256343 Z m 3.658438,0 v 12.805562 h 1.829562 V 9.256343 Z m 3.659124,0 v 12.805562 h 1.829562 V 9.256343 Z m 3.658438,0 v 12.805562 h 1.829562 V 9.256343 Z"
     id="path4"
     inkscape:connector-curvature="0"
     style="stroke-width:0.68599999" />
</svg>
