<?xml version="1.0" encoding="UTF-8" standalone="no"?>
<svg
   xmlns:dc="http://purl.org/dc/elements/1.1/"
   xmlns:cc="http://creativecommons.org/ns#"
   xmlns:rdf="http://www.w3.org/1999/02/22-rdf-syntax-ns#"
   xmlns:svg="http://www.w3.org/2000/svg"
   xmlns="http://www.w3.org/2000/svg"
   xmlns:sodipodi="http://sodipodi.sourceforge.net/DTD/sodipodi-0.dtd"
   xmlns:inkscape="http://www.inkscape.org/namespaces/inkscape"
   width="24"
   height="24"
   viewBox="0 0 18 18"
   version="1.1"
   id="svg11"
   inkscape:version="0.92pre1 r"
   sodipodi:docname="sharenew.svg">
  <metadata
     id="metadata17">
    <rdf:RDF>
      <cc:Work
         rdf:about="">
        <dc:format>image/svg+xml</dc:format>
        <dc:type
           rdf:resource="http://purl.org/dc/dcmitype/StillImage" />
        <dc:title></dc:title>
      </cc:Work>
    </rdf:RDF>
  </metadata>
  <defs
     id="defs15" />
  <sodipodi:namedview
     pagecolor="#ffffff"
     bordercolor="#666666"
     borderopacity="1"
     objecttolerance="10"
     gridtolerance="10"
     guidetolerance="10"
     inkscape:pageopacity="0"
     inkscape:pageshadow="2"
     inkscape:window-width="1280"
     inkscape:window-height="965"
     id="namedview13"
     showgrid="false"
     units="px"
     inkscape:zoom="9.8333333"
     inkscape:cx="-2.1355932"
     inkscape:cy="12"
     inkscape:window-x="0"
     inkscape:window-y="0"
     inkscape:window-maximized="1"
     inkscape:current-layer="svg11" />
  <g
     id="surface1">
    <path
       style="fill:#575757;fill-opacity:1;fill-rule:evenodd;stroke:none"
       d="m 5.0625,8.976562 c 0,1.09375 -0.890625,1.984376 -1.984375,1.984376 -1.097656,0 -1.984375,-0.890626 -1.984375,-1.984376 0,-1.097656 0.886719,-1.988281 1.984375,-1.988281 1.09375,0 1.984375,0.890625 1.984375,1.988281 z m 0,0"
       id="path2"
       inkscape:connector-curvature="0" />
    <path
       style="fill:#575757;fill-opacity:1;fill-rule:evenodd;stroke:none"
       d="m 16.972656,3.019531 c 0,1.097657 -0.886718,1.984375 -1.984375,1.984375 -1.097656,0 -1.984375,-0.886718 -1.984375,-1.984375 0,-1.097656 0.886719,-1.984375 1.984375,-1.984375 1.097657,0 1.984375,0.886719 1.984375,1.984375 z m 0,0"
       id="path4"
       inkscape:connector-curvature="0" />
    <path
       style="fill:#575757;fill-opacity:1;fill-rule:evenodd;stroke:none"
       d="m 16.972656,14.929688 c 0,1.097656 -0.886718,1.988281 -1.984375,1.988281 -1.097656,0 -1.984375,-0.890625 -1.984375,-1.988281 0,-1.09375 0.886719,-1.984376 1.984375,-1.984376 1.097657,0 1.984375,0.890626 1.984375,1.984376 z m 0,0"
       id="path6"
       inkscape:connector-curvature="0" />
    <path
       style="fill:none;stroke:#575757;stroke-width:2.11666703;stroke-linecap:butt;stroke-linejoin:bevel;stroke-miterlimit:4;stroke-opacity:1"
       d="m 19.975123,277.02418 -15.872856,7.93903 15.872856,7.93382"
       transform="matrix(0.750347,0,0,0.750347,0,-204.84484)"
       id="path8"
       inkscape:connector-curvature="0" />
  </g>
</svg>
